<?xml version="1.0" encoding="UTF-8" standalone="no"?>
<!-- Created with Inkscape (http://www.inkscape.org/) -->

<svg
   xmlns:dc="http://purl.org/dc/elements/1.1/"
   xmlns:cc="http://creativecommons.org/ns#"
   xmlns:rdf="http://www.w3.org/1999/02/22-rdf-syntax-ns#"
   xmlns:svg="http://www.w3.org/2000/svg"
   xmlns="http://www.w3.org/2000/svg"
   xmlns:sodipodi="http://sodipodi.sourceforge.net/DTD/sodipodi-0.dtd"
   xmlns:inkscape="http://www.inkscape.org/namespaces/inkscape"
   width="121.97923mm"
   height="122.2794mm"
   viewBox="0 0 121.97923 122.27937"
   version="1.1"
   id="svg8"
   inkscape:version="0.92.1 r15371"
   sodipodi:docname="logo3.svg">
  <defs
     id="defs2" />
  <sodipodi:namedview
     id="base"
     pagecolor="#ffffff"
     bordercolor="#666666"
     borderopacity="1.0"
     inkscape:pageopacity="0.0"
     inkscape:pageshadow="2"
     inkscape:zoom="1"
     inkscape:cx="376.63961"
     inkscape:cy="138.82151"
     inkscape:document-units="mm"
     inkscape:current-layer="layer1"
     showgrid="false"
     fit-margin-top="0"
     fit-margin-left="0"
     fit-margin-right="0"
     fit-margin-bottom="0"
     inkscape:window-width="1280"
     inkscape:window-height="961"
     inkscape:window-x="1272"
     inkscape:window-y="150"
     inkscape:window-maximized="1" />
  <metadata
     id="metadata5">
    <rdf:RDF>
      <cc:Work
         rdf:about="">
        <dc:format>image/svg+xml</dc:format>
        <dc:type
           rdf:resource="http://purl.org/dc/dcmitype/StillImage" />
        <dc:title></dc:title>
      </cc:Work>
    </rdf:RDF>
  </metadata>
  <g
     inkscape:label="Layer 1"
     inkscape:groupmode="layer"
     id="layer1"
     transform="translate(132.56961,-131.82645)">
    <path
       id="path4544"
       transform="matrix(0.26458333,0,0,0.26458333,-134.15715,131.82645)"
       style="opacity:0.98000004;fill:#000000;stroke-width:1.00000012"
       d="M 57.921875,0 50.0625,9.3671875 C 29.652938,33.692189 14.772337,63.264619 9.0820312,90.806641 -0.25389231,135.99441 11.780468,182.7661 43.017578,222.69727 c 11.466406,14.6578 30.061957,31.55728 42.789063,38.88476 2.058255,1.18503 3.74409,2.37915 3.746093,2.6543 0.0017,0.275 -3.773516,2.42906 -8.390625,4.78711 -39.475043,20.16094 -65.942226,64.42491 -72.6796871,121.55273 -0.656126,5.56275 -0.7802244,10.18013 -0.2871094,10.65235 1.129285,1.08143 21.7101045,5.60383 31.3691405,6.89257 50.494181,6.73709 98.275497,-5.9015 139.499997,-36.90039 11.50126,-8.64843 24.22611,-20.58586 32.5,-30.48632 l 6.5,-7.77735 1.09766,4.88867 c 0.92888,4.1435 0.80291,5.72983 -0.81641,10.39063 -3.09736,8.91496 -16.20991,34.75672 -22.73632,44.80664 -3.32416,5.11876 -6.04493,9.50578 -6.04493,9.74805 0,0.24215 1.62819,2.23983 3.61719,4.4414 h -0.002 c 2.18563,2.41924 4.50941,4.00391 5.87304,4.00391 2.53536,0 7.77039,-5.27282 15.04297,-15.15039 4.57763,-6.21733 16.46875,-29.0018 16.46875,-31.55664 0,-3.0511 1.79989,-0.9389 2.40039,2.8164 1.59137,9.9518 14.38475,43.97012 16.49414,43.85938 0.33275,-0.0175 1.42657,-0.65617 2.43164,-1.41797 1.65986,-1.25805 1.68979,-1.59968 0.32618,-3.71875 -4.49477,-6.98506 -12.0551,-29.25235 -15.19532,-44.75 l -1.5957,-7.87305 5.39258,-6.97851 c 10.48963,-13.57633 17.42382,-29.85809 20.35937,-47.79883 0.98385,-6.0127 1.89002,-11.08478 2.01172,-11.27149 0.12174,-0.18678 3.01332,1.55571 6.42578,3.87305 13.72653,9.32153 33.74094,16.87431 50.17969,18.93555 9.2029,1.15393 27.81507,1.34287 37.95899,0.38476 6.54678,-0.61836 6.64364,-0.66845 4.54101,-2.37109 -2.14212,-1.73458 -2.13201,-1.75037 3.77539,-5.5293 l 5.92578,-3.79101 -4.46679,-1.93164 c -8.07614,-3.49229 -27.28291,-9.49091 -37.46485,-11.70118 -16.69856,-3.62481 -30.11769,-4.99086 -49.25,-5.00976 l -18.25,-0.0195 -0.008,-3.25 c -0.005,-1.78753 -0.29127,-5.6026 -0.63672,-8.47852 -0.54811,-4.56283 -0.38866,-5.30298 1.25781,-5.8125 17.99691,-5.56917 33.94661,-17.77086 46.83204,-35.82812 4.69149,-6.57453 14.54895,-23.42737 14.55273,-24.88086 0.001,-0.4125 -1.29367,-0.75 -2.87695,-0.75 -2.28024,0 -3.14639,0.64816 -4.16993,3.11914 -2.13549,5.15569 -11.7406,19.90224 -17.7832,27.30078 -7.17948,8.79058 -18.65398,17.97971 -27.66797,22.1582 -6.8033,3.15375 -14.5,5.28573 -14.5,4.01758 0,-0.34465 2.76027,-6.13229 6.13282,-12.86133 6.47134,-12.91177 14.94855,-27.43252 23.05273,-39.48437 3.88263,-5.77395 4.51367,-7.24754 3.0957,-7.23242 -2.21442,0.022 -12.36943,15.28888 -23.33789,35.08593 -4.36845,7.8847 -7.94336,13.83685 -7.94336,13.22657 0,-0.61025 0.88786,-5.42318 1.97266,-10.69532 1.65286,-8.03308 6.00454,-35.40743 6.02344,-37.88476 0.003,-0.4125 -0.6711,-0.75 -1.4961,-0.75 -0.82499,0 -1.5,0.21059 -1.5,0.46679 0,5.01389 -5.69714,37.92347 -9.13867,52.78321 -1.86436,8.05047 -2.22189,8.75 -4.46289,8.75 -2.01502,0 -2.3448,-0.3887 -1.91016,-2.25 1.75631,-7.52103 2.70346,-18.88354 3.21094,-38.5 l 0.57617,-22.25 -2.88672,0.004 -2.88867,0.004 -0.0371,19.24609 c -0.0254,12.88921 -0.66163,24.03551 -1.92773,33.7461 -1.72176,13.20563 -2.19309,14.95662 -5.26563,19.61523 l -3.37304,5.11524 -10.84571,-4.83985 C 205.45994,260.57981 183.98378,255.74356 162.10329,255.051 l -9.96094,-0.31445 -1.26172,5.5 c -0.69384,3.02502 -1.55837,8.91619 -1.91992,13.09179 l -0.65625,7.5918 10.38086,2.16797 c 29.35029,6.12711 53.23826,5.12835 68.9414,-2.88281 2.12185,-1.08246 4.0833,-1.96875 4.35743,-1.96875 0.27408,0 -1.28401,3.302 -3.46094,7.33789 -4.40061,8.15845 -7.45182,18.75256 -8.51758,29.56836 -0.63466,6.44077 -1.20834,7.87852 -5.74024,14.375 -12.82697,18.38759 -38.23589,39.6342 -60.02343,50.1914 -35.59862,17.24935 -77.540219,21.63701 -118.177737,12.36133 -4.950009,-1.12985 -9.398119,-2.4254 -9.884765,-2.8789 -1.345323,-1.25375 1.085963,-29.61184 3.490234,-40.70899 3.97988,-18.3693 10.732948,-33.59952 20.849609,-47.02539 10.118098,-13.42772 20.85388,-21.94041 37.78125,-29.95898 11.158753,-5.28594 12.347649,-5.2766 29.763669,0.22851 6.05001,1.91233 11.30671,3.48463 11.68164,3.49219 0.37474,0.009 0.82463,-4.25821 1,-9.48437 0.2911,-8.6815 0.16031,-9.50201 -1.52343,-9.5 -3.02174,0.004 -20.98238,3.85209 -25.63086,5.49218 -4.286456,1.51234 -4.352177,1.4998 -10.585941,-1.98633 -10.701724,-5.9851 -22.50368,-15.30688 -33.441406,-26.41601 -22.362368,-22.71288 -34.328401,-45.14428 -38.654297,-72.45703 -2.213631,-13.97624 -1.384233,-43.0076 1.632813,-57.13086 6.002834,-28.099779 17.494846,-52.229 33.933593,-71.250002 7.274193,-8.416819 7.68344,-8.511759 22.400391,-5.257812 24.197667,5.350148 53.716617,18.05383 76.267577,32.824218 41.24227,27.012737 71.87794,63.269956 83.80664,99.183596 2.20912,6.65095 2.79725,7.53754 5.19336,7.83008 2.65807,0.32462 2.68982,0.25956 2.01563,-4 -1.06458,-6.72628 -8.20528,-27.27647 -12.98438,-37.36524 C 209.78245,76.314614 166.16033,38.233448 104.76562,13.597656 90.076478,7.7033711 69.785,1.4437335 62.494141,0.55664062 Z M 191.70312,0.12109375 C 188.24393,0.28806886 184.63104,3.8924039 186.38867,7.75 c 1.3143,2.884535 5.55786,4.243969 7.69922,2.466797 1.23591,-1.0257266 2.9168,-0.3901922 9.625,3.638672 27.11012,16.281864 45.56817,43.390454 54.74023,80.396484 4.64667,18.747477 6.13022,30.361697 6.80079,53.234377 0.51371,17.52283 0.84062,20.75 2.10937,20.75 1.30628,0 1.42383,-2.57874 0.89844,-19.75 C 266.60243,94.256717 252.67084,52.886096 227.14258,26.390625 218.92951,17.866392 210.36835,11.185918 202.57227,7.2148438 199.54361,5.672154 196.4988,3.4699192 195.80664,2.3222656 194.81581,0.67939973 193.27551,0.04519597 191.70312,0.12109375 Z M 428.27539,116.60156 c -0.25118,-0.0145 -0.49558,-0.0108 -0.72461,0.0117 -0.30537,0.03 -0.58457,0.092 -0.81445,0.19141 -0.91952,0.39779 -7.29684,0.83546 -14.17188,0.97265 -33.69331,0.67227 -62.14099,14.02683 -91.98828,43.17969 -9.13901,8.92641 -11.96489,12.22732 -10.48437,12.25 1.2136,0.0178 4.82457,-2.81587 9,-7.06055 22.2347,-22.60361 47.95582,-37.28231 73.41211,-41.89843 3.49277,-0.63334 11.3147,-1.16054 17.38281,-1.17188 10.23292,-0.0186 11.15524,0.14069 12.70508,2.19531 1.85737,2.4624 6.08752,2.9447 8.4707,0.9668 2.30245,-1.91081 1.93313,-7.70003 -0.57617,-9.04297 -0.64292,-0.34398 -1.4574,-0.55018 -2.21094,-0.59375 z m 36.28906,46.16016 c 0,-0.18954 -4.38749,1.2485 -9.75,3.19726 -27.13277,9.86004 -51.65448,15.49913 -75.70312,17.40821 -16.64296,1.32121 -39.26498,0.2795 -68.54688,-3.15821 -37.27271,-4.37586 -46.04276,-5.10775 -62,-5.17578 -25.59435,-0.10934 -43.70096,3.46472 -61.53711,12.14649 -18.65919,9.08232 -31.53986,21.4996 -39.94336,38.50781 -6.88886,13.94264 -8.94683,23.82951 -8.85351,42.54883 0.0425,8.52499 0.50255,17.52497 1.02148,20 0.91657,4.37159 0.96526,4.22896 1.69141,-5 4.48441,-56.99422 24.80484,-83.12263 71.25976,-91.62305 14.78061,-2.70459 49.91973,-2.44315 85.86133,0.63867 22.21739,1.90507 34.81525,2.40714 61,2.4336 30.26094,0.0294 34.0749,-0.16209 45.94141,-2.29688 15.66009,-2.81733 27.40015,-6.11625 38.00195,-10.67969 4.36883,-1.88054 8.14414,-3.21914 8.38867,-2.9746 1.1548,1.15489 1.31399,20.30552 0.22461,27.05859 -3.33876,20.69673 -14.43778,42.35414 -31.40234,61.27344 -10.92711,12.18614 -22.07915,21.6962 -44.51367,37.96484 l -2.36133,1.71289 6.04687,4.69531 c 12.82704,9.9611 23.64692,26.84136 26.78907,41.79688 4.78556,22.77762 -6.75432,51.30211 -29.77735,73.60937 -34.02943,32.97151 -75.98476,32.60277 -111.66211,-0.98242 -5.45669,-5.13664 -6.90749,-6.14971 -5.19921,-3.62695 13.80635,20.38919 32.61075,34.20367 52.42968,38.51562 3.35237,0.72938 11.32483,1.36046 17.7168,1.4043 26.1329,0.17873 51.13771,-10.99005 71.07227,-31.74805 17.7154,-18.44723 26.10402,-37.13495 26.11914,-58.17187 0.0118,-18.40188 -6.33738,-33.66676 -19.95313,-47.97461 -4.51638,-4.74592 -10.93262,-10.61174 -14.25781,-13.0332 l -6.04492,-4.40235 12.7207,-6.55469 c 28.81992,-14.85263 47.12831,-31.69158 58.5957,-53.89453 11.13925,-21.56761 13.98095,-48.3077 8.10352,-76.24804 -0.81256,-3.86264 -1.47852,-7.17746 -1.47852,-7.36719 z m 242.54297,195.34766 c -0.01,0.0296 -0.009,0.0258 -0.0176,0.0527 h 0.0274 c 0.012,-0.0308 0.005,-0.0105 0.0195,-0.0469 -0.01,-0.002 -0.0198,-0.004 -0.0293,-0.006 z m -230.53125,77.0625 c -0.005,0.0204 -0.0123,0.0402 -0.0176,0.0605 h 0.27149 c -0.0789,-0.0228 -0.18437,-0.0333 -0.25391,-0.0605 z m 236.01367,4.22265 c 0.0163,0.0751 0.0273,0.14453 0.0449,0.2207 0.0209,-0.0688 0.0374,-0.11507 0.0586,-0.18554 -0.0344,-0.0121 -0.0691,-0.0232 -0.10352,-0.0352 z"
       inkscape:connector-curvature="0" />
  </g>
</svg>
