<?xml version="1.0" encoding="UTF-8" standalone="no"?>
<!-- Created with Inkscape (http://www.inkscape.org/) -->

<svg
   xmlns:dc="http://purl.org/dc/elements/1.1/"
   xmlns:cc="http://creativecommons.org/ns#"
   xmlns:rdf="http://www.w3.org/1999/02/22-rdf-syntax-ns#"
   xmlns:svg="http://www.w3.org/2000/svg"
   xmlns="http://www.w3.org/2000/svg"
   xmlns:sodipodi="http://sodipodi.sourceforge.net/DTD/sodipodi-0.dtd"
   xmlns:inkscape="http://www.inkscape.org/namespaces/inkscape"
   width="190.05292mm"
   height="122.27956mm"
   viewBox="0 0 190.05291 122.27955"
   version="1.1"
   id="svg8"
   inkscape:version="0.92.1 r15371"
   sodipodi:docname="logo.svg">
  <defs
     id="defs2" />
  <sodipodi:namedview
     id="base"
     pagecolor="#ffffff"
     bordercolor="#666666"
     borderopacity="1.0"
     inkscape:pageopacity="0.0"
     inkscape:pageshadow="2"
     inkscape:zoom="0.5"
     inkscape:cx="557.1284"
     inkscape:cy="149.25167"
     inkscape:document-units="mm"
     inkscape:current-layer="layer1"
     showgrid="false"
     fit-margin-top="0"
     fit-margin-left="0"
     fit-margin-right="0"
     fit-margin-bottom="0"
     inkscape:window-width="1280"
     inkscape:window-height="961"
     inkscape:window-x="-8"
     inkscape:window-y="-8"
     inkscape:window-maximized="1" />
  <metadata
     id="metadata5">
    <rdf:RDF>
      <cc:Work
         rdf:about="">
        <dc:format>image/svg+xml</dc:format>
        <dc:type
           rdf:resource="http://purl.org/dc/dcmitype/StillImage" />
        <dc:title></dc:title>
      </cc:Work>
    </rdf:RDF>
  </metadata>
  <g
     inkscape:label="Layer 1"
     inkscape:groupmode="layer"
     id="layer1"
     transform="translate(134.15715,-131.82645)">
    <path
       style="opacity:0.98000004;fill:#000000;stroke-width:0.26458335"
       d="m -53.202612,253.73354 c -5.24376,-1.14087 -10.21908,-4.79575 -13.87201,-10.19039 -0.45198,-0.66748 -0.0678,-0.39957 1.37595,0.9595 9.43963,8.88608 20.540302,8.9838 29.543922,0.26009 6.09151,-5.90213 9.14443,-13.44926 7.87825,-19.47584 -0.83136,-3.95698 -3.69377,-8.42317 -7.08759,-11.05871 l -1.5999,-1.24244 0.62454,-0.45289 c 5.9358,-4.30441 8.88641,-6.82105 11.77754,-10.0453 4.48854,-5.00573 7.42514,-10.73565 8.30852,-16.21166 0.28823,-1.78675 0.24624,-6.85381 -0.0593,-7.15939 -0.0647,-0.0647 -1.06337,0.28946 -2.21929,0.78702 -2.80506,1.20741 -5.91147,2.08045 -10.05487,2.82587 -3.13968,0.56483 -4.14857,0.61526 -12.15511,0.60749 -6.92805,-0.007 -10.261243,-0.13966 -16.139592,-0.64371 -9.50955,-0.8154 -18.80687,-0.88456 -22.717573,-0.16897 -12.291212,2.24907 -17.667937,9.16213 -18.854437,24.24185 -0.192127,2.44183 -0.204893,2.47957 -0.447402,1.32292 -0.137301,-0.65485 -0.258829,-3.0361 -0.270063,-5.29167 -0.02469,-4.95282 0.519599,-7.56878 2.342277,-11.25777 2.223426,-4.50009 5.6314,-7.78564 10.568313,-10.18867 4.719148,-2.29705 9.510165,-3.2427 16.282005,-3.21377 4.22202,0.018 6.54243,0.21176 16.40417,1.36954 7.747502,0.90956 13.732622,1.18539 18.136072,0.83582 6.36287,-0.50511 12.8512,-1.9971 20.03008,-4.6059 1.41883,-0.51561 2.57969,-0.89643 2.57969,-0.84628 0,0.0502 0.17589,0.92737 0.39088,1.94936 1.55507,7.39255 0.80314,14.46742 -2.14412,20.17385 -3.03408,5.87453 -7.87793,10.32983 -15.5032,14.25959 l -3.36581,1.7346 1.59962,1.16488 c 0.87979,0.64068 2.57732,2.19226 3.77228,3.44795 3.6025,3.78562 5.28232,7.82464 5.2792,12.69347 -0.004,5.56602 -2.22361,10.51026 -6.91081,15.39109 -5.27435,5.49222 -11.89024,8.44767 -18.80457,8.40038 -1.69121,-0.0116 -3.800652,-0.17893 -4.687632,-0.37191 z M 48.22415,251.8009 c -0.30831,-0.0629 -0.46302,-0.34215 -0.46302,-0.83575 0,-0.61194 0.13847,-0.76897 0.7936,-0.9 0.87607,-0.17521 1.84958,-1.4831 1.85125,-2.48711 7.9e-4,-0.44964 -0.15196,-0.59531 -0.62407,-0.59531 -0.5747,0 -0.76654,-0.41106 -2.38125,-5.10236 -0.96591,-2.8063 -1.75619,-5.18755 -1.75619,-5.29166 0,-0.10413 0.57408,-0.18931 1.27575,-0.18931 h 1.27575 l 0.72668,2.44739 c 1.39135,4.68596 2.08256,6.83214 2.1717,6.743 0.0493,-0.0493 0.51352,-1.929 1.03151,-4.17703 0.51798,-2.24803 1.006,-4.29568 1.08449,-4.55034 0.11,-0.35694 0.43398,-0.46302 1.41405,-0.46302 h 1.27137 l -1.65198,6.4295 c -1.64842,6.41569 -2.09821,7.71279 -2.90742,8.38437 -0.46199,0.38342 -2.35828,0.74147 -3.11222,0.58763 z M 2.7133101,246.86914 c -1.3595,-0.48512 -1.72980002,-0.84156 -2.04201002,-1.96557 -0.36543,-1.31564 -0.30423,-5.25691 0.099,-6.37291 0.55221002,-1.52845 1.44877002,-1.98642 4.08118002,-2.08469 4.11967,-0.1538 5.3103299,0.68392 5.5402999,3.89798 l 0.13424,1.87628 h -3.9068399 -3.90685 l 0.15046,1.12177 c 0.20441,1.52395 0.90728,2.05323 2.72665,2.05323 1.07312,0 1.55682,-0.13092 1.95507,-0.52917 0.29104,-0.29104 0.52916,-0.64823 0.52916,-0.79375 0,-0.14552 0.53578,-0.26458 1.19063,-0.26458 1.1340699,0 1.1906199,0.036 1.1906199,0.75807 0,1.04273 -0.8895499,2.08056 -2.0625499,2.40634 -1.36425,0.3789 -4.48729,0.32226 -5.67902,-0.103 z m 5.2185,-7.09631 c -0.28706,-1.34252 -0.56371,-1.52135 -2.35355,-1.52135 -1.87338,0 -2.40865,0.30611 -2.66028,1.52135 l -0.17806,0.8599 h 2.68788 2.68788 z m 6.6241099,7.24967 c -0.8517,-0.27694 -1.3571,-0.66148 -1.68116,-1.27915 -0.44168,-0.84184 -0.37914,-3.29698 0.10146,-3.98313 0.80929,-1.15542 4.27689,-1.51639 6.02168,-0.62685 l 0.98198,0.50065 v -1.38568 c 0,-1.76464 -0.48792,-2.26144 -2.22104,-2.26144 -1.5029,0 -2.27687,0.36292 -2.27687,1.06764 0,0.44913 -0.18449,0.51986 -1.35599,0.51986 h -1.35599 l 0.17177,-0.8599 c 0.0945,-0.47294 0.46906,-1.15755 0.83241,-1.52135 0.5959,-0.59664 0.90888,-0.67053 3.19361,-0.754 3.00319,-0.10972 4.57477,0.34496 5.14476,1.48846 0.24121,0.4839 0.3922,2.09014 0.45947,4.88793 l 0.1002,4.16719 h -1.37702 c -1.24676,0 -1.36393,-0.0501 -1.23864,-0.52917 0.0761,-0.29104 0.0305,-0.52916 -0.10144,-0.52916 -0.13189,0 -0.23981,0.12513 -0.23981,0.27808 0,0.77013 -3.56852,1.3373 -5.15938,0.82002 z m 5.09374,-2.07019 c 0.54848,-0.74953 0.30744,-2.00095 -0.46353,-2.4065 -0.95335,-0.5015 -3.41741,-0.28195 -3.87611,0.34536 -0.52065,0.71204 -0.43762,1.62991 0.20564,2.27317 0.49026,0.49026 0.77037,0.54404 2.17166,0.41698 1.13173,-0.10262 1.71364,-0.28915 1.96234,-0.62901 z m 7.21307,1.83157 c -1.43841,-0.72143 -1.58292,-1.27541 -1.58728,-6.085 l -0.004,-4.29948 h 1.32292 1.32291 v 4.08214 c 0,4.69586 0.0882,4.91369 1.98852,4.91369 0.84106,0 1.35968,-0.17418 1.89933,-0.63791 0.74171,-0.63735 0.74244,-0.64132 0.82803,-4.49792 l 0.0857,-3.86 h 1.17111 1.1711 v 5.29166 5.29167 h -1.19062 c -1.11431,0 -1.19063,-0.0454 -1.19063,-0.70758 v -0.70758 l -0.59531,0.55766 c -1.26741,1.18726 -3.58504,1.47959 -5.22184,0.65865 z m 12.49587,0.0681 c -0.47924,-0.20829 -0.97849,-0.68121 -1.12448,-1.06521 -0.14441,-0.37983 -0.26257,-2.23066 -0.26257,-4.11296 v -3.42236 h -0.66146 c -0.57956,0 -0.66146,-0.11465 -0.66146,-0.92604 0,-0.81139 0.0819,-0.92604 0.66146,-0.92604 0.60756,0 0.66146,-0.097 0.66146,-1.19063 v -1.19062 h 1.32292 1.32291 v 1.19062 1.19063 h 2.11667 2.11667 v 0.92604 0.92604 h -2.12435 -2.12435 l 0.0738,3.50573 0.0738,3.50573 0.7436,0.0853 c 0.96095,0.11019 1.40877,-0.28121 1.62196,-1.41761 0.1629,-0.86835 0.22894,-0.91661 1.25426,-0.91661 h 1.08231 l -0.16978,1.25677 c -0.19643,1.45408 -0.86788,2.49084 -1.77808,2.74545 -1.10694,0.30965 -3.25042,0.22475 -4.14535,-0.16419 z m -53.77455,-7.40991 v -7.54062 h 4.9032901 c 5.48173,0 6.42025,0.20484 7.11768,1.55352 0.47399,0.91661 0.55427,3.51167 0.13298,4.29886 -0.15481,0.28927 -0.65072,0.75049 -1.10202,1.02494 l -0.82055,0.499 0.68005,0.17069 c 0.37403,0.0939 0.95646,0.46489 1.29428,0.82449 0.5295,0.56363 0.61191,0.91676 0.59748,2.56008 -0.0191,2.18189 -0.32131,2.9094 -1.50914,3.63367 -0.75944,0.46306 -1.36105,0.51412 -6.06853,0.51501 l -5.2255201,9.9e-4 z m 9.6674701,4.24979 c 0.22362,-0.5352 0.31257,-1.24697 0.21611,-1.72928 -0.26898,-1.34491 -0.91406,-1.59446 -4.12162,-1.59446 H -11.50553 v 2.11666 2.11667 h 3.1885001 3.1885 z m -0.67164,-5.96958 c 0.34957,-0.34957 0.52917,-0.88194 0.52917,-1.5686 0,-1.67373 -0.39251,-1.87098 -3.72307,-1.87098 H -11.50553 v 1.98437 1.98438 h 2.7781201 c 2.42535,0 2.84532,-0.0672 3.30729,-0.52917 z m -79.2119261,1.85132 c -0.526257,-0.5825 -0.956829,-1.11151 -0.956829,-1.17558 0,-0.0641 0.719603,-1.22459 1.599118,-2.57893 1.726795,-2.65904 5.196443,-9.49639 6.015953,-11.85514 0.428445,-1.23317 0.461338,-1.6526 0.215572,-2.7489 l -0.290018,-1.29369 -1.719792,2.05791 c -2.189133,2.61951 -5.555916,5.77753 -8.598958,8.06576 -10.907316,8.20179 -23.54946,11.54595 -36.90938,9.76343 -2.55562,-0.34098 -8.00129,-1.53739 -8.30008,-1.82352 -0.13047,-0.12494 -0.0975,-1.34657 0.0761,-2.81838 1.78262,-15.11507 8.78523,-26.8267 19.22967,-32.16095 1.22161,-0.6239 2.22072,-1.1939 2.22026,-1.26666 -5.3e-4,-0.0728 -0.44641,-0.38882 -0.99099,-0.70236 -3.36738,-1.93873 -8.28775,-6.40999 -11.32157,-10.2882 -8.26482,-10.56512 -11.44887,-22.93997 -8.97874,-34.8959 1.50556,-7.28716 5.44276,-15.1114 10.84279,-21.54739 l 2.07968,-2.47865 1.20947,0.14716 c 1.92904,0.23471 7.29778,1.8911 11.18429,3.45063 16.244017,6.51822 27.785526,16.59406 33.975255,29.66069 1.26447,2.66932 3.154033,8.10646 3.435703,9.88612 0.17838,1.12701 0.1697,1.14422 -0.53358,1.05833 -0.63397,-0.0774 -0.789518,-0.31195 -1.374014,-2.07168 -3.156135,-9.50215 -11.261768,-19.09495 -22.173785,-26.24207 -5.966609,-3.908 -13.777149,-7.26964 -20.179449,-8.6852 -3.89386,-0.86094 -4.00175,-0.83561 -5.92638,1.39134 -4.34942,5.03264 -7.38992,11.41682 -8.97817,18.85155 -0.79826,3.73678 -1.0179,11.4182 -0.43221,15.11608 1.14456,7.2265 4.31072,13.16126 10.22743,19.17071 2.89394,2.93929 6.01631,5.40577 8.84787,6.98927 1.64935,0.92237 1.66698,0.92568 2.8011,0.52554 1.22991,-0.43394 5.98164,-1.45226 6.78114,-1.45323 0.44549,-5.3e-4 0.48032,0.21656 0.4033,2.51354 -0.0464,1.38277 -0.16543,2.51217 -0.26458,2.50976 -0.0992,-0.002 -1.48997,-0.41836 -3.0907,-0.92433 -4.60799,-1.45656 -4.92292,-1.45897 -7.87534,-0.0604 -4.4787,2.12158 -7.31881,4.37371 -9.99589,7.92646 -2.6767,3.55226 -4.46348,7.58239 -5.51649,12.4426 -0.63613,2.93612 -1.27943,10.4389 -0.92348,10.77062 0.12876,0.11999 1.30568,0.46277 2.61537,0.76171 10.75201,2.45419 21.84864,1.29357 31.267441,-3.27032 5.76462,-2.79326 12.48745,-8.41491 15.881268,-13.27996 1.199063,-1.71886 1.350968,-2.09924 1.518889,-3.80336 0.281982,-2.86168 1.089543,-5.6648 2.253871,-7.82339 0.57598,-1.06783 0.987894,-1.9415 0.915363,-1.9415 -0.07253,0 -0.591206,0.23433 -1.152612,0.52073 -4.154789,2.11962 -10.475579,2.38395 -18.241177,0.76282 l -2.746537,-0.57336 0.173935,-2.00874 c 0.09566,-1.10481 0.324133,-2.66359 0.507712,-3.46396 l 0.333777,-1.4552 2.6357,0.0834 c 5.789215,0.18324 11.471606,1.46273 16.539718,3.72422 l 2.869457,1.28041 0.89263,-1.3534 c 0.812943,-1.23259 0.937283,-1.69587 1.392833,-5.18986 0.33499,-2.56926 0.50351,-5.51845 0.51022,-8.92872 l 0.01,-5.09226 0.76393,-0.001 0.76393,-0.001 -0.1523,5.88698 c -0.13427,5.19019 -0.38506,8.19652 -0.84975,10.18646 -0.115,0.49247 -0.0277,0.59531 0.50544,0.59531 0.59293,0 0.68732,-0.18508 1.1806,-2.3151 0.91057,-3.93164 2.41837,-12.6391 2.41837,-13.96569 0,-0.0678 0.17859,-0.1232 0.39687,-0.1232 0.21828,0 0.39623,0.0893 0.39544,0.19844 -0.005,0.65546 -1.15606,7.89817 -1.59338,10.02359 -0.28702,1.39492 -0.52185,2.66833 -0.52185,2.82979 0,0.16147 0.94568,-1.41328 2.1015,-3.49944 2.90207,-5.23797 5.58889,-9.27731 6.17479,-9.28312 0.37517,-0.004 0.20847,0.38587 -0.81881,1.91356 -2.14423,3.18872 -4.38745,7.03073 -6.09966,10.44697 -0.89232,1.78039 -1.6224,3.31169 -1.6224,3.40288 0,0.33553 2.03641,-0.22888 3.83645,-1.06331 2.38495,-1.10556 5.42063,-3.5368 7.3202,-5.86264 1.59877,-1.95753 4.14022,-5.85891 4.705249,-7.22302 0.27081,-0.65378 0.50022,-0.82536 1.103533,-0.82536 0.41891,0 0.76138,0.0893 0.76105,0.19844 -10e-4,0.38457 -2.609332,4.84343 -3.850622,6.58294 -3.40927,4.77765 -7.62902,8.00596 -12.3907,9.47947 -0.43563,0.13481 -0.47805,0.33071 -0.33303,1.53796 0.0914,0.76092 0.16722,1.77043 0.16848,2.24338 l 0.002,0.85989 4.82865,0.005 c 5.06209,0.005 8.61257,0.36663 13.030732,1.32571 2.69397,0.5848 7.77596,2.17206 9.91277,3.09606 l 1.18152,0.51091 -1.5676,1.00278 c -1.563,0.99984 -1.56593,1.00413 -0.99916,1.46307 0.55632,0.45049 0.53074,0.46385 -1.20143,0.62746 -2.68391,0.2535 -7.60809,0.20366 -10.043023,-0.10165 -4.349419,-0.54537 -9.645249,-2.54373 -13.277059,-5.01005 -0.90288,-0.61313 -1.66795,-1.07435 -1.70016,-1.02493 -0.0322,0.0494 -0.27155,1.39147 -0.53186,2.98233 -0.7767,4.74682 -2.61159,9.05443 -5.386972,12.6465 l -1.426843,1.8467 0.422056,2.08292 c 0.83085,4.10042 2.831679,9.99224 4.020919,11.84037 0.36079,0.56067 0.35287,0.65091 -0.0863,0.98377 -0.26594,0.20156 -0.55555,0.37026 -0.64359,0.37489 -0.55811,0.0293 -3.942883,-8.97135 -4.363931,-11.60443 -0.158882,-0.99359 -0.635378,-1.55237 -0.635378,-0.7451 0,0.67597 -3.145896,6.70446 -4.357061,8.34946 -1.924203,2.61344 -3.309413,4.00849 -3.980225,4.00849 -0.360794,0 -0.975519,-0.41901 -1.553802,-1.0591 z M 47.76113,229.65249 c 0,-0.75948 0.0983,-0.92604 0.54656,-0.92604 0.88211,0 1.49407,-0.45953 1.80686,-1.35681 0.43024,-1.23419 0.3637,-1.55361 -0.32366,-1.55361 -0.56353,0 -0.7591,-0.42316 -2.29279,-4.96094 -0.92219,-2.72851 -1.72925,-5.10976 -1.79347,-5.29166 -0.0832,-0.2357 0.25864,-0.33073 1.18976,-0.33073 h 1.30653 l 1.26547,4.16719 c 0.69601,2.29195 1.35676,4.33536 1.46833,4.54091 0.12327,0.2271 0.58645,-1.27811 1.18055,-3.83646 0.53773,-2.3156 1.02445,-4.35901 1.0816,-4.54091 0.063,-0.20064 0.5755,-0.33073 1.30284,-0.33073 0.78377,0 1.19826,0.11452 1.19701,0.33073 -0.004,0.72317 -3.19734,12.70703 -3.58624,13.45908 -0.48808,0.94383 -1.77952,1.55602 -3.28251,1.55602 -1.04285,0 -1.06684,-0.0208 -1.06684,-0.92604 z m -65.37243,-4.60986 -0.7734,-0.77339 v -4.51827 -4.51827 h 1.19062 1.19063 v 3.40651 c 0,4.44089 0.10985,4.95445 1.13635,5.31229 1.12326,0.39157 2.47659,0.0796 3.10163,-0.71501 0.46569,-0.59203 0.52452,-1.07828 0.52452,-4.33531 v -3.66848 h 1.3229201 1.32291 v 5.29167 5.29166 h -1.19062 c -1.1465301,0 -1.1906301,-0.0294 -1.1906301,-0.79375 0,-0.43656 -0.0504,-0.79375 -0.11194,-0.79375 -0.0616,0 -0.46912,0.35719 -0.90569,0.79375 -0.74366,0.74367 -0.92152,0.79375 -2.81883,0.79375 -1.88546,0 -2.0784,-0.0533 -2.79847,-0.7734 z m 12.5760301,0.12397 c -0.68714,-0.68714 -0.71691,-0.89999 -0.65243,-4.66595 0.0463,-2.70655 -0.15129,-3.41587 -0.95173,-3.41587 -0.54445,0 -0.63277,-0.1268 -0.63277,-0.90847 0,-0.79437 0.0914,-0.91898 0.7276,-0.99218 0.66632,-0.0767 0.7344,-0.18958 0.80825,-1.34049 l 0.0806,-1.25677 h 1.17613 1.17613 v 1.32291 1.32292 h 2.11667 2.11665998 v 0.92604 0.92604 h -2.11665998 -2.11667 v 3.1561 c 0,3.25118 0.22338,3.98765 1.20952,3.98765 0.60259,0 1.43630998,-0.99827 1.43630998,-1.71979 0,-0.59871 0.10359,-0.66146 1.092,-0.66146 H 1.5263301 l -0.13197,1.3735 c -0.19953,2.0765 -0.93237002,2.59525 -3.6663,2.59525 -1.89165,0 -2.18223,-0.0683 -2.76337,-0.64943 z m 8.99584,0 c -0.62788,-0.62787 -0.64944,-0.77281 -0.64944,-4.36563 v -3.71619 h -0.79375 c -0.72783,0 -0.79375,-0.0754 -0.79375,-0.90847 0,-0.79437 0.0914,-0.91898 0.72761,-0.99218 0.66632,-0.0767 0.73439,-0.18958 0.80824,-1.34049 l 0.0806,-1.25677 h 1.17612 1.17613 v 1.32291 1.32292 h 2.11667 2.11667 v 0.92604 0.92604 h -2.11667 -2.11667 v 3.1561 c 0,2.51641 0.0843,3.24038 0.41578,3.57188 0.52314,0.52314 0.89941,0.52403 1.64202,0.004 0.38117,-0.26699 0.58804,-0.68583 0.58804,-1.19063 0,-0.73215 0.0633,-0.77875 1.05833,-0.77875 H 10.45483 v 1.21098 c 0,0.98567 -0.14389,1.35487 -0.7733999,1.98438 -0.72785,0.72785 -0.89995,0.7734 -2.92244,0.7734 -1.92892,0 -2.21556,-0.0665 -2.79847,-0.64943 z m 9.4047299,0.0641 c -1.27757,-0.86175 -1.65721,-2.12856 -1.52933,-5.10321 0.1749,-4.06823 1.14244,-5.04275 4.96891,-5.00474 3.87863,0.0385 5.02709,1.02478 5.02709,4.31712 v 1.61366 h -3.68855 c -2.11556,0 -3.75668,0.11023 -3.84831,0.25848 -0.0879,0.14216 -0.0317,0.73386 0.12472,1.31488 0.24786,0.92049 0.41746,1.09222 1.31828,1.33479 1.50663,0.40569 3.16038,0.0778 3.51323,-0.69664 0.23514,-0.51608 0.4829,-0.62401 1.43247,-0.62401 1.09451,0 1.14816,0.0364 1.14816,0.779 0,0.44162 -0.27629,1.1005 -0.63795,1.52135 -0.6227,0.72462 -0.71278,0.74441 -3.77031,0.82816 -2.92895,0.0802 -3.19251,0.0452 -4.05841,-0.53884 z m 5.99735,-6.73402 c -0.21091,-1.29969 -0.4488,-1.48209 -2.08544,-1.59898 -1.91254,-0.13659 -2.69714,0.30623 -2.8034,1.58223 l -0.0821,0.9861 h 2.56413 2.56413 z m 4.85057,2.02769 v -5.29167 h 1.19062 c 1.11956,0 1.19063,0.043 1.19063,0.72033 v 0.72033 l 0.40656,-0.58045 c 0.83488,-1.19196 3.80461,-1.3788 4.78023,-0.30074 0.27231,0.30089 0.50782,1.09708 0.57923,1.95817 l 0.12034,1.45111 h -1.22339 c -1.21941,0 -1.22339,-0.003 -1.22339,-0.91673 0,-1.51785 -1.61546,-1.98978 -2.79015,-0.81509 -0.62999,0.62999 -0.64943,0.76465 -0.64943,4.49792 v 3.84848 h -1.19063 -1.19062 z m 10.58333,0.92604 v -4.36563 H 34.0028 c -0.73075,0 -0.79375,-0.0735 -0.79375,-0.92604 0,-0.84396 0.0675,-0.92604 0.76195,-0.92604 0.74274,0 0.76487,-0.0403 0.87763,-1.59922 0.0927,-1.28219 0.25326,-1.7368 0.80972,-2.29327 0.60712,-0.60712 0.91971,-0.69678 2.49581,-0.71588 l 1.80177,-0.0218 0.0829,0.8599 c 0.0787,0.81653 0.0379,0.85989 -0.80932,0.85989 -1.23624,0 -1.74672,0.47714 -1.83999,1.71979 l -0.0794,1.05834 1.38906,0.08 c 1.38727,0.0799 1.38907,0.0811 1.38907,0.97836 0,0.89723 -0.002,0.89849 -1.38907,0.97836 l -1.38906,0.08 -0.0727,4.29948 -0.0727,4.29948 h -1.18407 -1.18407 z m 6.87917,-3.30729 v -7.67292 h 1.19062 1.19063 v 7.67292 7.67291 h -1.19063 -1.19062 z m -92.601173,-43.73027 c 7.897096,-7.71336 15.423973,-11.24639 24.338663,-11.42426 1.81902,-0.0363 3.50635,-0.15211 3.74964,-0.25736 0.24329,-0.10525 0.68978,-0.0589 0.99219,0.1029 0.66392,0.35532 0.76134,1.88742 0.15215,2.39299 -0.63055,0.52332 -1.74978,0.39544 -2.24121,-0.25607 -0.41006,-0.54362 -0.65378,-0.58574 -3.36124,-0.58082 -1.60552,0.003 -3.67523,0.14241 -4.59936,0.30998 -6.73531,1.22135 -13.54068,5.10552 -19.423613,11.08606 -1.104749,1.12307 -2.060149,1.87244 -2.381249,1.86773 -0.39172,-0.006 0.356,-0.87937 2.774029,-3.24115 z m -14.637589,-3.56401 c -0.17742,-6.05173 -0.57002,-9.1248 -1.79945,-14.08507 -2.42679,-9.79118 -7.310238,-16.96354 -14.483124,-21.27145 -1.774878,-1.06597 -2.219465,-1.23403 -2.546467,-0.96264 -0.566568,0.47021 -1.68933,0.1104 -2.037072,-0.6528 -0.676423,-1.48459 1.652781,-2.82679 2.491685,-1.43583 0.183134,0.30365 0.988605,0.88605 1.789938,1.29422 2.062713,1.05068 4.327755,2.81858 6.500797,5.07395 6.754353,7.01026 10.440783,17.95596 10.879803,32.30421 0.13901,4.54323 0.10798,5.22552 -0.23764,5.22552 -0.33569,0 -0.42255,-0.85386 -0.55847,-5.49011 z"
       id="path4544"
       inkscape:connector-curvature="0" />
  </g>
</svg>
